<svg width="20" height="20" viewBox="0 0 20 20" fill="none" xmlns="http://www.w3.org/2000/svg">
<path fill-rule="evenodd" clip-rule="evenodd" d="M10 8.59824L16.3079 2.29031C16.695 1.90323 17.3226 1.90323 17.7097 2.29031C18.0968 2.6774 18.0968 3.30499 17.7097 3.69208L11.4018 10L17.7097 16.3079C18.0968 16.695 18.0968 17.3226 17.7097 17.7097C17.3226 18.0968 16.695 18.0968 16.3079 17.7097L10 11.4018L3.69208 17.7097C3.30499 18.0968 2.6774 18.0968 2.29031 17.7097C1.90323 17.3226 1.90323 16.695 2.29031 16.3079L8.59824 10L2.29031 3.69208C1.90323 3.30499 1.90323 2.6774 2.29031 2.29031C2.6774 1.90323 3.30499 1.90323 3.69208 2.29031L10 8.59824Z" fill="#BCBFC2"/>
</svg>
