<svg width="121" height="27" viewBox="0 0 121 27" fill="none" xmlns="http://www.w3.org/2000/svg">
<g filter="url(#filter0_d)">
<path d="M11.2658 1.24984V3.36496L9.38612 3.72549V12.8589C9.38612 14.0126 9.69539 14.8779 10.3139 15.4548C10.9405 16.0236 11.796 16.308 12.8805 16.308C13.981 16.308 14.8445 16.0236 15.4711 15.4548C16.0977 14.8859 16.411 14.0207 16.411 12.8589V3.72549L14.5433 3.36496V1.24984H21.8091V3.36496L19.9294 3.72549V12.8589C19.9294 14.8218 19.2787 16.3361 17.9774 17.4016C16.6841 18.4672 14.9851 19 12.8805 19C10.7839 19 9.0889 18.4672 7.79559 17.4016C6.51031 16.3361 5.86767 14.8218 5.86767 12.8589V3.72549L4 3.36496V1.24984H11.2658Z" fill="white"/>
<path d="M22.749 16.6445L24.4359 16.284V8.22011L22.5682 7.85958V5.74447H27.7134L27.87 7.60721C28.3038 6.94223 28.838 6.42547 29.4726 6.05693C30.1072 5.68838 30.8181 5.50411 31.6054 5.50411C32.9228 5.50411 33.951 5.91672 34.69 6.74194C35.4291 7.56715 35.7986 8.86106 35.7986 10.6237V16.284L37.4855 16.6445V18.7476H30.7619V16.6445L32.2681 16.284V10.6357C32.2681 9.76239 32.0913 9.14548 31.7379 8.78495C31.3844 8.4164 30.8503 8.23213 30.1353 8.23213C29.6694 8.23213 29.2517 8.32827 28.8822 8.52056C28.5127 8.70483 28.2034 8.96922 27.9544 9.31373V16.284L29.3762 16.6445V18.7476H22.749V16.6445Z" fill="white"/>
<path d="M38.4977 16.6445L40.1966 16.284V8.22011L38.3169 7.85958V5.74447H43.7151V16.284L45.402 16.6445V18.7476H38.4977V16.6445ZM43.7151 2.63188H40.1966V0H43.7151V2.63188Z" fill="white"/>
<path d="M52.0895 7.85958L50.8604 8.08792L52.5835 13.9045L52.8124 15.1303H52.8847L53.1378 13.9045L54.8367 8.09994L53.5836 7.85958V5.74447H59.4999V7.85958L58.3672 8.03985L54.5235 18.7476H51.1617L47.3058 8.03985L46.1732 7.85958V5.74447H52.0895V7.85958Z" fill="white"/>
<path d="M66.7055 19C64.8258 19 63.3236 18.3991 62.199 17.1973C61.0744 15.9956 60.5121 14.4693 60.5121 12.6186V12.1379C60.5121 10.207 61.0422 8.6167 62.1026 7.36686C63.171 6.11701 64.6008 5.4961 66.3922 5.50411C68.1514 5.50411 69.517 6.03289 70.489 7.09045C71.461 8.14801 71.947 9.57812 71.947 11.3808V13.2916H64.163L64.1389 13.3637C64.2032 14.221 64.4884 14.926 64.9945 15.4788C65.5086 16.0316 66.2034 16.308 67.079 16.308C67.8582 16.308 68.5049 16.2319 69.019 16.0797C69.5331 15.9195 70.0954 15.6711 70.7059 15.3346L71.6578 17.4978C71.1196 17.9224 70.4207 18.2789 69.5612 18.5674C68.7097 18.8558 67.7578 19 66.7055 19ZM66.3922 8.2081C65.7415 8.2081 65.2274 8.45646 64.8499 8.95319C64.4723 9.44993 64.2394 10.1029 64.151 10.9121L64.1871 10.9722H68.5009V10.6597C68.5009 9.91461 68.3241 9.32174 67.9707 8.88109C67.6253 8.43243 67.0991 8.2081 66.3922 8.2081Z" fill="white"/>
<path d="M73.887 16.6445L75.5739 16.284V8.22011L73.7062 7.85958V5.74447H78.8514L79.008 7.64326C79.3132 6.97027 79.7069 6.4455 80.1889 6.06894C80.6708 5.69239 81.2291 5.50411 81.8637 5.50411C82.0485 5.50411 82.2413 5.52013 82.4421 5.55218C82.651 5.57622 82.8237 5.60826 82.9602 5.64832L82.5867 8.84503L81.1408 8.80898C80.6266 8.80898 80.2009 8.90913 79.8635 9.10942C79.5261 9.30972 79.2691 9.59414 79.0923 9.96268V16.284L80.7793 16.6445V18.7476H73.887V16.6445Z" fill="white"/>
<path d="M94.6482 10.2151H92.2865L91.913 8.59266C91.672 8.40038 91.3667 8.24014 90.9972 8.11195C90.6357 7.98377 90.2341 7.91967 89.7923 7.91967C89.1737 7.91967 88.6837 8.05988 88.3222 8.34029C87.9608 8.61269 87.78 8.9572 87.78 9.37381C87.78 9.76639 87.9527 10.0949 88.2981 10.3593C88.6436 10.6156 89.3344 10.844 90.3707 11.0443C91.9853 11.3647 93.1822 11.8374 93.9614 12.4624C94.7406 13.0793 95.1302 13.9325 95.1302 15.0221C95.1302 16.1919 94.6241 17.1493 93.612 17.8944C92.6078 18.6315 91.2824 19 89.6356 19C88.6315 19 87.7077 18.8558 86.8643 18.5674C86.0288 18.2709 85.2858 17.8503 84.6351 17.3055L84.599 14.3852H87.0571L87.539 16.0797C87.7479 16.256 88.0331 16.3882 88.3945 16.4763C88.756 16.5564 89.1336 16.5965 89.5272 16.5965C90.2421 16.5965 90.7844 16.4683 91.1539 16.2119C91.5314 15.9555 91.7202 15.607 91.7202 15.1664C91.7202 14.7818 91.5314 14.4493 91.1539 14.1689C90.7763 13.8885 90.0815 13.6401 89.0693 13.4238C87.535 13.1113 86.3742 12.6506 85.587 12.0417C84.8078 11.4248 84.4182 10.5876 84.4182 9.53004C84.4182 8.44044 84.8681 7.50306 85.7678 6.7179C86.6674 5.92473 87.9487 5.52815 89.6115 5.52815C90.6237 5.52815 91.5796 5.66435 92.4793 5.93675C93.387 6.20915 94.098 6.55766 94.6121 6.98229L94.6482 10.2151Z" fill="white"/>
<path d="M105.011 18.7476C104.914 18.5313 104.83 18.311 104.758 18.0867C104.685 17.8543 104.629 17.622 104.589 17.3896C104.171 17.8703 103.661 18.2589 103.059 18.5553C102.464 18.8518 101.782 19 101.01 19C99.7331 19 98.7169 18.6555 97.9618 17.9665C97.2148 17.2694 96.8412 16.3241 96.8412 15.1303C96.8412 13.9125 97.3312 12.9711 98.3113 12.3061C99.2913 11.6412 100.729 11.3087 102.625 11.3087H104.42V10.0348C104.42 9.40987 104.24 8.92515 103.878 8.58064C103.517 8.23614 102.982 8.06388 102.276 8.06388C101.874 8.06388 101.516 8.11195 101.203 8.2081C100.89 8.29623 100.637 8.40438 100.444 8.53257L100.215 9.92663H97.5642L97.5762 7.04238C98.2189 6.60974 98.9539 6.2452 99.7813 5.94877C100.617 5.65233 101.524 5.50411 102.504 5.50411C104.119 5.50411 105.428 5.9007 106.433 6.69386C107.445 7.47902 107.951 8.60067 107.951 10.0588V15.4307C107.951 15.631 107.951 15.8193 107.951 15.9956C107.959 16.1718 107.975 16.3401 107.999 16.5003L109.071 16.6445V18.7476H105.011ZM101.962 16.4042C102.492 16.4042 102.974 16.292 103.408 16.0677C103.842 15.8353 104.179 15.5469 104.42 15.2024V13.2195H102.625C101.878 13.2195 101.312 13.3957 100.926 13.7483C100.54 14.0928 100.348 14.5094 100.348 14.9981C100.348 15.4388 100.488 15.7833 100.769 16.0316C101.059 16.28 101.456 16.4042 101.962 16.4042Z" fill="white"/>
<path d="M109.903 2.11512V0H115.301V16.284L117 16.6445V18.7476H110.084V16.6445L111.783 16.284V2.47565L109.903 2.11512Z" fill="white"/>
</g>
<defs>
<filter id="filter0_d" x="0" y="0" width="121" height="27" filterUnits="userSpaceOnUse" color-interpolation-filters="sRGB">
<feFlood flood-opacity="0" result="BackgroundImageFix"/>
<feColorMatrix in="SourceAlpha" type="matrix" values="0 0 0 0 0 0 0 0 0 0 0 0 0 0 0 0 0 0 127 0" result="hardAlpha"/>
<feOffset dy="4"/>
<feGaussianBlur stdDeviation="2"/>
<feComposite in2="hardAlpha" operator="out"/>
<feColorMatrix type="matrix" values="0 0 0 0 0 0 0 0 0 0 0 0 0 0 0 0 0 0 0.25 0"/>
<feBlend mode="normal" in2="BackgroundImageFix" result="effect1_dropShadow"/>
<feBlend mode="normal" in="SourceGraphic" in2="effect1_dropShadow" result="shape"/>
</filter>
</defs>
</svg>
