<?xml version="1.0" encoding="iso-8859-1"?>
<!-- Generator: Adobe Illustrator 16.0.0, SVG Export Plug-In . SVG Version: 6.00 Build 0)  -->
<!DOCTYPE svg PUBLIC "-//W3C//DTD SVG 1.1//EN" "http://www.w3.org/Graphics/SVG/1.1/DTD/svg11.dtd">
<svg version="1.1" id="Capa_1" xmlns="http://www.w3.org/2000/svg" xmlns:xlink="http://www.w3.org/1999/xlink" x="0px" y="0px"
	 width="577.565px" height="577.565px" viewBox="0 0 577.565 577.565" style="enable-background:new 0 0 577.565 577.565;"
	 xml:space="preserve">
<g>
	<path d="M436.782,0H140.784c-9.228,0-16.734,7.506-16.734,16.734v544.097c0,9.228,7.507,16.734,16.734,16.734h295.998
		c9.228,0,16.734-7.507,16.734-16.734V16.734C453.516,7.506,446,0,436.782,0z M401.821,28.075c4.849,0,8.788,3.94,8.788,8.798
		c0,4.848-3.939,8.788-8.788,8.788c-4.857,0-8.797-3.939-8.797-8.788C393.023,32.025,396.973,28.075,401.821,28.075z
		 M383.987,32.856c2.219,0,4.017,1.798,4.017,4.017c0,2.218-1.798,4.016-4.017,4.016c-2.228,0-4.017-1.798-4.017-4.016
		C379.97,34.654,381.768,32.856,383.987,32.856z M373.363,32.856c2.219,0,4.017,1.798,4.017,4.017c0,2.218-1.798,4.016-4.017,4.016
		s-4.016-1.798-4.016-4.016C369.337,34.654,371.135,32.856,373.363,32.856z M255.802,28.075h65.953v17.585h-65.953V28.075z
		 M321.754,551.823h-65.953v-17.586h65.953V551.823z M418.603,513.229h-259.65V66.191h259.65V513.229z"/>
</g>
<g>
</g>
<g>
</g>
<g>
</g>
<g>
</g>
<g>
</g>
<g>
</g>
<g>
</g>
<g>
</g>
<g>
</g>
<g>
</g>
<g>
</g>
<g>
</g>
<g>
</g>
<g>
</g>
<g>
</g>
</svg>
