<svg width="20" height="20" viewBox="0 0 20 20" fill="none" xmlns="http://www.w3.org/2000/svg">
<path fill-rule="evenodd" clip-rule="evenodd" d="M17.1187 3.94703C16.2268 2.94913 15.041 2.39999 13.7794 2.39999C12.5178 2.39999 11.459 2.94913 10.5667 3.94703L9.99997 4.8522L9.43333 3.94703C8.5413 2.94913 7.48219 2.39999 6.22076 2.39999C4.95938 2.39999 3.7731 2.94913 2.88115 3.94703C1.03962 6.00732 1.03962 9.3595 2.88115 11.419L9.47989 17.7609C9.58778 17.8821 9.72209 17.9562 9.86242 17.9848C9.90948 17.9952 9.95681 18 10.0042 18C10.1909 18 10.3779 17.9203 10.5201 17.7609L17.1188 11.419C18.9604 9.3595 18.9604 6.00732 17.1187 3.94703Z" fill="white"/>
</svg>
